<svg version="1.1" id="Layer_1" xmlns="http://www.w3.org/2000/svg" xmlns:xlink="http://www.w3.org/1999/xlink" x="0px" y="0px"
	 width="100%" viewBox="0 0 500 500" enable-background="new 0 0 500 500" xml:space="preserve">
<path fill="#2B192E" opacity="1.000000" stroke="none" 
	d="
M248.000000,501.000000 
	C165.333359,501.000000 83.166702,501.000000 1.000044,501.000000 
	C1.000029,334.333405 1.000029,167.666779 1.000015,1.000134 
	C167.666565,1.000089 334.333130,1.000089 500.999756,1.000045 
	C500.999847,167.666519 500.999847,334.333038 500.999939,500.999786 
	C416.833344,501.000000 332.666656,501.000000 248.000000,501.000000 
M176.823318,298.002991 
	C175.756134,296.073914 174.966721,293.913452 173.580826,292.249878 
	C144.003784,256.746704 149.495789,205.642242 185.933395,177.899139 
	C223.711685,149.135223 273.071228,148.918243 311.085114,177.348984 
	C348.342987,205.214325 354.020782,258.016998 323.532532,293.090729 
	C322.287048,294.523529 321.060150,295.972443 319.824615,297.413849 
	C320.162079,297.949890 320.499542,298.485931 320.837006,299.021973 
	C323.575958,297.764893 327.155182,297.223938 328.928070,295.143555 
	C356.633209,262.633545 355.214508,214.580765 325.879059,183.589676 
	C290.635529,146.357056 232.460388,139.819107 189.748093,168.290756 
	C145.297516,197.921127 135.632141,253.384537 167.762482,293.992767 
	C169.991638,296.810120 172.215927,298.837128 176.823318,298.002991 
M285.840424,219.123474 
	C281.412933,221.666077 276.985443,224.208694 272.415527,226.833084 
	C270.264404,210.329727 263.990356,204.818970 247.776932,204.819717 
	C239.277802,204.820114 230.774063,204.669388 222.280670,204.896194 
	C210.729126,205.204636 202.829483,212.899155 202.554642,224.440018 
	C202.257141,236.931870 202.236572,249.442795 202.560959,261.933289 
	C202.857407,273.348602 211.115631,281.063080 222.555313,281.165436 
	C232.553680,281.254913 242.555099,281.293243 252.552231,281.149841 
	C263.135651,280.998077 271.074310,273.352386 271.910095,262.767853 
	C272.049896,260.997375 272.079956,259.218201 272.186523,256.875519 
	C274.711334,258.299408 276.840271,259.486969 278.956360,260.696930 
	C281.266937,262.018036 283.523102,263.441162 285.878265,264.676239 
	C291.209747,267.472137 295.315002,265.304871 295.433228,259.263214 
	C295.658173,247.768646 295.634399,236.264832 295.462067,224.768631 
	C295.372925,218.820923 292.486023,217.062454 285.840424,219.123474 
M202.149078,336.977448 
	C202.536041,335.180634 203.152435,333.397308 203.259018,331.584015 
	C203.442932,328.455200 203.309967,325.307739 203.309967,322.168121 
	C203.714996,322.134064 204.120026,322.100006 204.525070,322.065948 
	C209.315277,327.364044 214.105499,332.662170 219.782562,338.941162 
	C219.782562,327.207458 219.782562,317.175415 219.782562,306.927246 
	C217.694153,307.041687 215.959045,307.136749 213.720428,307.259399 
	C213.720428,312.692200 213.720428,317.678680 213.720428,323.348572 
	C208.279953,317.147675 203.429138,311.618835 197.614014,304.990906 
	C197.614014,316.669922 197.614014,326.695007 197.614014,336.848724 
	C198.965210,336.910370 200.119049,336.963013 202.149078,336.977448 
M291.620605,331.266235 
	C291.620605,333.068237 291.620605,334.870239 291.620605,336.766907 
	C293.776489,336.766907 295.530029,336.766907 297.437897,336.766907 
	C297.437897,326.773712 297.437897,317.039154 297.437897,307.240112 
	C295.427765,307.240112 293.676849,307.240112 291.447327,307.240112 
	C291.447327,311.228424 291.447327,314.961151 291.447327,318.748291 
	C288.365784,318.748291 285.767944,318.748291 282.687805,318.748291 
	C282.687805,314.793793 282.687805,311.053436 282.687805,307.229492 
	C280.449554,307.229492 278.697906,307.229492 276.882202,307.229492 
	C276.882202,317.226379 276.882202,326.966675 276.882202,336.727722 
	C278.867615,336.727722 280.608063,336.727722 282.715454,336.727722 
	C282.715454,334.631866 282.715454,332.829285 282.715454,331.026672 
	C282.715454,329.115601 282.715454,327.204529 282.715454,325.238251 
	C286.004944,325.238251 288.611755,325.238251 291.620605,325.238251 
	C291.620605,327.074097 291.620605,328.700073 291.620605,331.266235 
M120.793526,331.622559 
	C124.049927,333.416199 127.128914,336.165436 130.598709,336.809662 
	C138.452377,338.267761 140.580658,336.030701 140.577377,328.137970 
	C140.576553,326.183472 140.577240,324.228973 140.577240,322.239807 
	C138.258667,322.239807 136.503876,322.239807 134.248367,322.239807 
	C134.248367,325.260529 134.248367,328.011627 134.248367,330.733917 
	C127.418968,330.964325 123.846809,327.670013 123.978157,321.745117 
	C124.130699,314.863342 128.623032,312.290253 139.008301,313.313660 
	C139.243607,311.576813 139.479980,309.832245 139.704330,308.176392 
	C132.412537,305.512085 125.308701,307.047424 121.097336,311.974335 
	C116.726257,317.088074 116.446678,323.971375 120.793526,331.622559 
M226.140671,337.016296 
	C227.919037,336.554504 229.674057,335.940674 231.480728,335.663422 
	C234.965958,335.128540 238.532104,334.229309 241.964981,334.549652 
	C244.364838,334.773590 246.598999,336.773193 248.907181,337.979706 
	C249.243378,337.504822 249.579575,337.029938 249.915787,336.555054 
	C245.801453,326.459503 241.687119,316.363922 237.093887,305.093231 
	C232.658951,316.073547 228.739914,325.744293 224.885071,335.440552 
	C224.733582,335.821594 225.195114,336.446320 226.140671,337.016296 
M147.023941,330.516449 
	C146.242599,332.499359 145.461258,334.482269 144.133606,337.851624 
	C147.452103,336.863800 149.581024,335.999756 151.792862,335.624756 
	C155.257843,335.037323 158.830948,334.238770 162.258301,334.568512 
	C164.653687,334.799011 166.882156,336.764374 169.185181,337.954865 
	C169.507980,337.476837 169.830795,336.998810 170.153595,336.520782 
	C166.027664,326.402222 161.901718,316.283661 157.374969,305.182159 
	C153.706787,314.124084 150.497452,321.947449 147.023941,330.516449 
M312.001892,311.483063 
	C308.625366,319.837982 305.248840,328.192902 301.872314,336.547821 
	C302.220459,337.010712 302.568604,337.473633 302.916779,337.936523 
	C305.090027,336.829987 307.169464,335.112457 309.458679,334.760895 
	C312.851166,334.239868 316.449127,334.322113 319.850525,334.850189 
	C322.141693,335.205841 324.244659,336.773621 326.431824,337.799164 
	C326.738159,337.331299 327.044495,336.863464 327.350830,336.395599 
	C323.229004,326.281860 319.107178,316.168091 314.661652,305.260101 
	C313.567719,307.758301 312.907257,309.266602 312.001892,311.483063 
M258.312714,323.225677 
	C259.807831,323.938080 261.466705,324.438934 262.746399,325.429626 
	C263.777191,326.227539 264.349670,327.617462 265.125488,328.744751 
	C263.840332,329.520782 262.550262,330.942841 261.271118,330.933044 
	C258.895782,330.914886 256.526825,330.061066 254.145035,329.553040 
	C252.343765,335.051575 252.760529,335.944305 258.065338,336.872284 
	C259.843567,337.183350 261.724243,337.221497 263.522949,337.038635 
	C267.341034,336.650513 270.027344,334.630005 271.071716,330.838409 
	C272.167938,326.858612 271.042145,323.579895 267.485626,321.371185 
	C265.662323,320.238861 263.519897,319.575104 261.826569,318.295959 
	C260.842377,317.552490 259.740784,315.799438 260.007538,314.884033 
	C260.288971,313.918243 262.074799,312.977966 263.312500,312.804352 
	C264.996857,312.568085 266.784729,313.069427 268.806091,313.283966 
	C268.904633,311.281189 268.983185,309.685211 269.056732,308.190125 
	C262.030823,305.677704 257.111786,306.771790 254.619186,311.212067 
	C252.226852,315.473694 253.183456,319.133759 258.312714,323.225677 
M365.780670,332.311157 
	C363.622742,321.924347 371.881592,315.469788 375.589600,307.486053 
	C366.536987,304.094238 366.683228,313.350708 362.500427,316.602203 
	C355.867004,306.686523 355.867004,306.686523 349.376953,307.451263 
	C355.406128,316.536041 362.888184,324.931793 359.293091,337.079376 
	C363.049377,336.844452 366.548798,338.231049 365.780670,332.311157 
M185.278961,314.484192 
	C187.711639,313.710602 190.144302,312.936981 192.890442,312.063721 
	C192.823654,310.640808 192.743011,308.923187 192.668518,307.336304 
	C185.449539,307.336304 178.732361,307.336304 171.835663,307.336304 
	C171.942307,309.430206 172.030563,311.162842 172.115494,312.830353 
	C174.741974,312.992096 176.835052,313.121002 179.365021,313.276825 
	C179.365021,321.318878 179.365021,329.046295 179.365021,336.699615 
	C181.563553,336.699615 183.294449,336.699615 185.252518,336.699615 
	C185.252518,329.417908 185.252518,322.450012 185.278961,314.484192 
M337.923340,310.738281 
	C338.479065,305.376556 334.879639,307.304352 332.184143,307.093719 
	C332.184143,317.229706 332.184143,326.946228 332.184143,336.678955 
	C337.331024,336.678955 342.200684,336.678955 346.974609,336.678955 
	C346.974609,334.617737 346.974609,332.890656 346.974609,330.847900 
	C343.853729,330.847900 341.077301,330.847900 337.923492,330.847900 
	C337.923492,324.251801 337.923492,317.970428 337.923340,310.738281 
M379.985901,337.055908 
	C381.354797,336.204865 383.049286,335.591187 383.929504,334.383850 
	C384.273163,333.912476 383.056519,331.638245 382.047577,331.054657 
	C381.226501,330.579773 378.605316,331.351685 378.590790,331.656799 
	C378.508881,333.375946 378.973633,335.121094 379.985901,337.055908 
z"/>
<path fill="#ECDFD2" opacity="1.000000" stroke="none" 
	d="
M176.426514,298.011230 
	C172.215927,298.837128 169.991638,296.810120 167.762482,293.992767 
	C135.632141,253.384537 145.297516,197.921127 189.748093,168.290756 
	C232.460388,139.819107 290.635529,146.357056 325.879059,183.589676 
	C355.214508,214.580765 356.633209,262.633545 328.928070,295.143555 
	C327.155182,297.223938 323.575958,297.764893 320.837006,299.021973 
	C320.499542,298.485931 320.162079,297.949890 319.824615,297.413849 
	C321.060150,295.972443 322.287048,294.523529 323.532532,293.090729 
	C354.020782,258.016998 348.342987,205.214325 311.085114,177.348984 
	C273.071228,148.918243 223.711685,149.135223 185.933395,177.899139 
	C149.495789,205.642242 144.003784,256.746704 173.580826,292.249878 
	C174.966721,293.913452 175.756134,296.073914 176.426514,298.011230 
z"/>
<path fill="#F0E3D6" opacity="1.000000" stroke="none" 
	d="
M286.191010,218.954834 
	C292.486023,217.062454 295.372925,218.820923 295.462067,224.768631 
	C295.634399,236.264832 295.658173,247.768646 295.433228,259.263214 
	C295.315002,265.304871 291.209747,267.472137 285.878265,264.676239 
	C283.523102,263.441162 281.266937,262.018036 278.956360,260.696930 
	C276.840271,259.486969 274.711334,258.299408 272.186523,256.875519 
	C272.079956,259.218201 272.049896,260.997375 271.910095,262.767853 
	C271.074310,273.352386 263.135651,280.998077 252.552231,281.149841 
	C242.555099,281.293243 232.553680,281.254913 222.555313,281.165436 
	C211.115631,281.063080 202.857407,273.348602 202.560959,261.933289 
	C202.236572,249.442795 202.257141,236.931870 202.554642,224.440018 
	C202.829483,212.899155 210.729126,205.204636 222.280670,204.896194 
	C230.774063,204.669388 239.277802,204.820114 247.776932,204.819717 
	C263.990356,204.818970 270.264404,210.329727 272.415527,226.833084 
	C276.985443,224.208694 281.412933,221.666077 286.191010,218.954834 
M221.248505,275.688232 
	C231.225739,275.732330 241.205902,275.944733 251.179382,275.772308 
	C260.819794,275.605652 266.131561,269.963898 266.150543,260.352142 
	C266.173584,248.709656 266.179840,237.067047 266.148468,225.424606 
	C266.123016,215.992432 260.800720,210.609512 251.336304,210.532852 
	C242.022903,210.457413 232.708160,210.474625 223.394455,210.527817 
	C213.759720,210.582840 208.166733,215.965149 208.045334,225.580612 
	C207.898376,237.221268 207.909195,248.866394 208.045059,260.507324 
	C208.144363,269.015015 211.991714,273.502686 221.248505,275.688232 
M289.991669,237.512177 
	C289.991669,233.082123 289.991669,228.652069 289.991669,223.505432 
	C287.203033,225.004562 285.045471,226.113754 282.935486,227.307114 
	C271.180603,233.955536 271.166779,233.963669 272.043671,247.600159 
	C272.112122,248.664612 272.344727,250.225571 273.052032,250.661255 
	C278.440247,253.980270 283.965546,257.076691 289.991669,260.556244 
	C289.991669,252.488205 289.991669,245.497696 289.991669,237.512177 
z"/>
<path fill="#ECDFD3" opacity="1.000000" stroke="none" 
	d="
M201.710968,336.996552 
	C200.119049,336.963013 198.965210,336.910370 197.614014,336.848724 
	C197.614014,326.695007 197.614014,316.669922 197.614014,304.990906 
	C203.429138,311.618835 208.279953,317.147675 213.720428,323.348572 
	C213.720428,317.678680 213.720428,312.692200 213.720428,307.259399 
	C215.959045,307.136749 217.694153,307.041687 219.782562,306.927246 
	C219.782562,317.175415 219.782562,327.207458 219.782562,338.941162 
	C214.105499,332.662170 209.315277,327.364044 204.525070,322.065948 
	C204.120026,322.100006 203.714996,322.134064 203.309967,322.168121 
	C203.309967,325.307739 203.442932,328.455200 203.259018,331.584015 
	C203.152435,333.397308 202.536041,335.180634 201.710968,336.996552 
z"/>
<path fill="#EADDD1" opacity="1.000000" stroke="none" 
	d="
M291.620605,330.796143 
	C291.620605,328.700073 291.620605,327.074097 291.620605,325.238251 
	C288.611755,325.238251 286.004944,325.238251 282.715454,325.238251 
	C282.715454,327.204529 282.715454,329.115601 282.715454,331.026672 
	C282.715454,332.829285 282.715454,334.631866 282.715454,336.727722 
	C280.608063,336.727722 278.867615,336.727722 276.882202,336.727722 
	C276.882202,326.966675 276.882202,317.226379 276.882202,307.229492 
	C278.697906,307.229492 280.449554,307.229492 282.687805,307.229492 
	C282.687805,311.053436 282.687805,314.793793 282.687805,318.748291 
	C285.767944,318.748291 288.365784,318.748291 291.447327,318.748291 
	C291.447327,314.961151 291.447327,311.228424 291.447327,307.240112 
	C293.676849,307.240112 295.427765,307.240112 297.437897,307.240112 
	C297.437897,317.039154 297.437897,326.773712 297.437897,336.766907 
	C295.530029,336.766907 293.776489,336.766907 291.620605,336.766907 
	C291.620605,334.870239 291.620605,333.068237 291.620605,330.796143 
z"/>
<path fill="#EADCD0" opacity="1.000000" stroke="none" 
	d="
M120.557915,331.338806 
	C116.446678,323.971375 116.726257,317.088074 121.097336,311.974335 
	C125.308701,307.047424 132.412537,305.512085 139.704330,308.176392 
	C139.479980,309.832245 139.243607,311.576813 139.008301,313.313660 
	C128.623032,312.290253 124.130699,314.863342 123.978157,321.745117 
	C123.846809,327.670013 127.418968,330.964325 134.248367,330.733917 
	C134.248367,328.011627 134.248367,325.260529 134.248367,322.239807 
	C136.503876,322.239807 138.258667,322.239807 140.577240,322.239807 
	C140.577240,324.228973 140.576553,326.183472 140.577377,328.137970 
	C140.580658,336.030701 138.452377,338.267761 130.598709,336.809662 
	C127.128914,336.165436 124.049927,333.416199 120.557915,331.338806 
z"/>
<path fill="#EBDED1" opacity="1.000000" stroke="none" 
	d="
M225.755829,336.986908 
	C225.195114,336.446320 224.733582,335.821594 224.885071,335.440552 
	C228.739914,325.744293 232.658951,316.073547 237.093887,305.093231 
	C241.687119,316.363922 245.801453,326.459503 249.915787,336.555054 
	C249.579575,337.029938 249.243378,337.504822 248.907181,337.979706 
	C246.598999,336.773193 244.364838,334.773590 241.964981,334.549652 
	C238.532104,334.229309 234.965958,335.128540 231.480728,335.663422 
	C229.674057,335.940674 227.919037,336.554504 225.755829,336.986908 
z"/>
<path fill="#ECDFD3" opacity="1.000000" stroke="none" 
	d="
M147.156036,330.143616 
	C150.497452,321.947449 153.706787,314.124084 157.374969,305.182159 
	C161.901718,316.283661 166.027664,326.402222 170.153595,336.520782 
	C169.830795,336.998810 169.507980,337.476837 169.185181,337.954865 
	C166.882156,336.764374 164.653687,334.799011 162.258301,334.568512 
	C158.830948,334.238770 155.257843,335.037323 151.792862,335.624756 
	C149.581024,335.999756 147.452103,336.863800 144.133606,337.851624 
	C145.461258,334.482269 146.242599,332.499359 147.156036,330.143616 
z"/>
<path fill="#EBDED2" opacity="1.000000" stroke="none" 
	d="
M312.124329,311.128967 
	C312.907257,309.266602 313.567719,307.758301 314.661652,305.260101 
	C319.107178,316.168091 323.229004,326.281860 327.350830,336.395599 
	C327.044495,336.863464 326.738159,337.331299 326.431824,337.799164 
	C324.244659,336.773621 322.141693,335.205841 319.850525,334.850189 
	C316.449127,334.322113 312.851166,334.239868 309.458679,334.760895 
	C307.169464,335.112457 305.090027,336.829987 302.916779,337.936523 
	C302.568604,337.473633 302.220459,337.010712 301.872314,336.547821 
	C305.248840,328.192902 308.625366,319.837982 312.124329,311.128967 
z"/>
<path fill="#ECDFD2" opacity="1.000000" stroke="none" 
	d="
M257.988892,323.045776 
	C253.183456,319.133759 252.226852,315.473694 254.619186,311.212067 
	C257.111786,306.771790 262.030823,305.677704 269.056732,308.190125 
	C268.983185,309.685211 268.904633,311.281189 268.806091,313.283966 
	C266.784729,313.069427 264.996857,312.568085 263.312500,312.804352 
	C262.074799,312.977966 260.288971,313.918243 260.007538,314.884033 
	C259.740784,315.799438 260.842377,317.552490 261.826569,318.295959 
	C263.519897,319.575104 265.662323,320.238861 267.485626,321.371185 
	C271.042145,323.579895 272.167938,326.858612 271.071716,330.838409 
	C270.027344,334.630005 267.341034,336.650513 263.522949,337.038635 
	C261.724243,337.221497 259.843567,337.183350 258.065338,336.872284 
	C252.760529,335.944305 252.343765,335.051575 254.145035,329.553040 
	C256.526825,330.061066 258.895782,330.914886 261.271118,330.933044 
	C262.550262,330.942841 263.840332,329.520782 265.125488,328.744751 
	C264.349670,327.617462 263.777191,326.227539 262.746399,325.429626 
	C261.466705,324.438934 259.807831,323.938080 257.988892,323.045776 
z"/>
<path fill="#EDE0D3" opacity="1.000000" stroke="none" 
	d="
M365.780548,332.770325 
	C366.548798,338.231049 363.049377,336.844452 359.293091,337.079376 
	C362.888184,324.931793 355.406128,316.536041 349.376953,307.451263 
	C355.867004,306.686523 355.867004,306.686523 362.500427,316.602203 
	C366.683228,313.350708 366.536987,304.094238 375.589600,307.486053 
	C371.881592,315.469788 363.622742,321.924347 365.780548,332.770325 
z"/>
<path fill="#EEE1D4" opacity="1.000000" stroke="none" 
	d="
M185.265747,314.983154 
	C185.252518,322.450012 185.252518,329.417908 185.252518,336.699615 
	C183.294449,336.699615 181.563553,336.699615 179.365021,336.699615 
	C179.365021,329.046295 179.365021,321.318878 179.365021,313.276825 
	C176.835052,313.121002 174.741974,312.992096 172.115494,312.830353 
	C172.030563,311.162842 171.942307,309.430206 171.835663,307.336304 
	C178.732361,307.336304 185.449539,307.336304 192.668518,307.336304 
	C192.743011,308.923187 192.823654,310.640808 192.890442,312.063721 
	C190.144302,312.936981 187.711639,313.710602 185.265747,314.983154 
z"/>
<path fill="#F2E5D7" opacity="1.000000" stroke="none" 
	d="
M337.923401,311.213684 
	C337.923492,317.970428 337.923492,324.251801 337.923492,330.847900 
	C341.077301,330.847900 343.853729,330.847900 346.974609,330.847900 
	C346.974609,332.890656 346.974609,334.617737 346.974609,336.678955 
	C342.200684,336.678955 337.331024,336.678955 332.184143,336.678955 
	C332.184143,326.946228 332.184143,317.229706 332.184143,307.093719 
	C334.879639,307.304352 338.479065,305.376556 337.923401,311.213684 
z"/>
<path fill="#EFE2D5" opacity="1.000000" stroke="none" 
	d="
M379.618958,336.956665 
	C378.973633,335.121094 378.508881,333.375946 378.590790,331.656799 
	C378.605316,331.351685 381.226501,330.579773 382.047577,331.054657 
	C383.056519,331.638245 384.273163,333.912476 383.929504,334.383850 
	C383.049286,335.591187 381.354797,336.204865 379.618958,336.956665 
z"/>
<path fill="#2D1B30" opacity="1.000000" stroke="none" 
	d="
M220.827621,275.601379 
	C211.991714,273.502686 208.144363,269.015015 208.045059,260.507324 
	C207.909195,248.866394 207.898376,237.221268 208.045334,225.580612 
	C208.166733,215.965149 213.759720,210.582840 223.394455,210.527817 
	C232.708160,210.474625 242.022903,210.457413 251.336304,210.532852 
	C260.800720,210.609512 266.123016,215.992432 266.148468,225.424606 
	C266.179840,237.067047 266.173584,248.709656 266.150543,260.352142 
	C266.131561,269.963898 260.819794,275.605652 251.179382,275.772308 
	C241.205902,275.944733 231.225739,275.732330 220.827621,275.601379 
z"/>
<path fill="#2D1B2F" opacity="1.000000" stroke="none" 
	d="
M289.991669,238.009689 
	C289.991669,245.497696 289.991669,252.488205 289.991669,260.556244 
	C283.965546,257.076691 278.440247,253.980270 273.052032,250.661255 
	C272.344727,250.225571 272.112122,248.664612 272.043671,247.600159 
	C271.166779,233.963669 271.180603,233.955536 282.935486,227.307114 
	C285.045471,226.113754 287.203033,225.004562 289.991669,223.505432 
	C289.991669,228.652069 289.991669,233.082123 289.991669,238.009689 
z"/>
</svg>